<?xml version="1.0" encoding="UTF-8"?>
<svg width="254px" height="154px" viewBox="0 0 254 154" version="1.1" xmlns="http://www.w3.org/2000/svg" xmlns:xlink="http://www.w3.org/1999/xlink">
    <!-- Generator: Sketch 49 (51002) - http://www.bohemiancoding.com/sketch -->
    <title>gulp-white-text</title>
    <desc>Created with Sketch.</desc>
    <defs></defs>
    <g id="Page-1" stroke="none" stroke-width="1" fill="none" fill-rule="evenodd">
        <g id="gulp-white-text" transform="translate(1.000000, 0.000000)" fill="#CF4647" fill-rule="nonzero" stroke="#CF4647">
            <path d="M67.53,79.12 C67.36,79.38 67.03,80.2 66.58,81.57 C66.12,82.95 65.56,84.67 64.9,86.77 C64.24,88.84 63.52,91.17 62.76,93.74 L60.39,101.62 C59.49,104.3 58.79,106.92 57.99,109.5 L55.99,116.48 L54.49,121.7 L53.79,124.2 C53.49,125.03 53.19,125.95 52.69,126.97 C52.19,127.97 51.59,128.94 50.99,129.85 C50.29,130.75 49.59,131.52 48.79,132.12 C47.99,132.72 47.19,133.02 46.29,133.02 C44.89,133.02 43.89,132.54 43.19,131.62 C42.49,130.67 42.19,128.96 42.19,126.46 L42.19,124.2 C42.19,123.37 42.59,121.8 43.19,119.52 C43.79,117.22 44.49,114.64 45.39,111.76 C46.19,108.86 47.19,105.88 48.09,102.79 L50.79,94.39 C48.39,96.99 45.89,99.59 43.19,102.09 C40.49,104.69 37.69,106.99 34.89,108.99 C31.99,110.99 29.09,112.69 26.19,113.99 C23.29,115.29 20.49,115.89 17.79,115.89 C14.69,115.89 12.09,115.19 9.89,113.79 C7.69,112.39 5.79,110.69 4.39,108.49 C2.99,106.29 1.89,103.79 1.19,101.09 C0.8,98.5 0.4,95.7 0.4,93 L0.4,92 C0.4,91.7 0.44,91.37 0.5,91.06 C0.74,86.06 1.45,80.96 2.6,75.72 C3.8,70.44 5.3,65.22 7.2,60.02 C9.1,54.82 11.3,49.72 13.8,44.76 C16.4,40 19.1,35.3 22,30.9 C24.9,26.5 28.02,22.4 31.3,18.7 C34.6,14.98 37.97,11.78 41.44,9.1 C44.9,6.4 48.4,4.3 51.94,2.8 C55.44,1.3 58.94,0.5 62.4,0.5 C66.4,0.5 70.26,1.6 74,3.77 C77.7,6 81.2,9.5 84.48,14.4 C85.22,15.5 85.68,16.6 85.88,17.72 C86.08,18.82 86.18,19.89 86.18,20.87 C86.18,23.21 85.63,25.07 84.51,26.41 C83.41,27.81 82.11,28.41 80.51,28.41 C79.11,28.41 77.81,27.71 76.61,26.21 C75.41,24.71 74.01,22.61 72.61,19.91 C71.21,17.41 69.71,15.61 68.01,14.51 C66.31,13.41 64.51,12.91 62.51,12.91 C59.41,12.91 56.21,14.21 52.71,16.81 C49.21,19.41 45.81,22.71 42.41,26.91 C39.01,31.11 35.71,35.91 32.61,41.31 C29.51,46.71 26.71,52.21 24.31,57.91 C21.91,63.61 20.01,69.11 18.61,74.61 C17.21,80.11 16.51,85.01 16.51,89.41 C16.51,90.91 16.61,92.41 16.81,93.91 C17.01,95.51 17.41,96.81 17.91,98.11 C18.41,99.41 19.21,100.41 20.21,101.21 C21.21,102.01 22.41,102.41 23.81,102.41 C25.41,102.41 27.31,101.91 29.31,100.81 C31.41,99.71 33.51,98.31 35.71,96.51 C37.91,94.71 40.21,92.71 42.41,90.51 C44.61,88.31 46.81,86.01 48.71,83.71 C50.61,81.41 52.41,79.21 53.81,77.11 C55.31,75.01 56.41,73.21 57.21,71.61 L63,53 C63.74,51.03 64.7,49.62 65.93,48.8 C67.13,47.96 68.36,47.54 69.63,47.54 C70.23,47.54 70.86,47.64 71.48,47.84 C72.08,48.04 72.66,48.36 73.15,48.8 C73.65,49.2 74.02,49.8 74.31,50.5 C74.61,51.2 74.81,52 74.81,53 C74.81,55.5 74.61,57.86 74.21,60.04 C73.81,62.24 73.21,64.34 72.51,66.44 C71.91,68.49 71.11,70.58 70.31,72.69 C69.51,74.79 68.71,76.99 67.91,79.29 L67.53,79.12 Z M150.56,94.4 C148.63,97 146.38,99.54 143.82,102 C141.25,104.48 138.6,106.68 135.88,108.6 C133.16,110.52 130.48,112.07 127.85,113.24 C125.21,114.41 122.85,114.99 120.75,114.99 C118.65,114.99 116.92,114.29 115.6,112.89 C114.28,111.49 113.62,109.09 113.62,105.69 C113.62,103.29 113.98,100.49 114.68,97.29 C113.54,99.29 112.11,101.39 110.4,103.39 C108.7,105.49 106.73,107.39 104.54,109.09 C102.34,110.79 99.88,112.19 97.16,113.19 C94.44,114.19 91.48,114.79 88.26,114.79 C86.83,114.79 85.43,114.59 84.09,114.19 C82.69,113.79 81.49,113.19 80.49,112.29 C79.49,111.39 78.69,110.19 77.99,108.69 C77.39,107.19 77.09,105.29 77.09,103.09 L77.29,100.69 C77.49,99.19 77.99,96.69 78.99,93.39 C79.99,90.09 81.39,85.79 83.39,80.49 C85.39,75.19 88.09,68.89 91.69,61.39 C92.59,59.39 93.59,57.99 94.89,57.09 C96.09,56.19 97.39,55.79 98.79,55.79 C99.39,55.79 99.99,55.89 100.69,56.09 C101.29,56.19 101.89,56.49 102.49,56.89 C103.09,57.29 103.49,57.79 103.89,58.39 C104.19,58.89 104.39,59.59 104.39,60.39 C104.39,60.89 104.29,61.39 104.19,61.79 C103.89,62.69 103.49,63.79 102.79,65.19 L100.19,70.13 C99.19,71.93 98.19,73.93 97.09,76.05 C95.99,78.18 94.99,80.45 94.09,82.67 C93.19,84.97 92.39,87.32 91.69,89.67 C90.99,92.07 90.59,94.37 90.49,96.57 C90.49,97.57 90.69,98.37 91.09,99.17 C91.49,99.97 92.29,100.37 93.29,100.37 C96.09,100.37 98.89,99.47 101.49,97.57 C104.09,95.7 106.49,93.37 108.69,90.59 C110.89,87.79 112.89,84.79 114.69,81.59 C116.49,78.39 117.89,75.49 119.09,72.85 C119.89,71.08 120.69,69.18 121.29,67.15 C121.89,65.15 122.59,63.25 123.39,61.55 C124.09,59.85 124.99,58.39 125.99,57.25 C126.89,56.11 128.09,55.55 129.59,55.55 C131.09,55.55 132.39,56.15 133.29,57.35 C134.19,58.55 134.69,59.95 134.69,61.65 C134.69,62.55 134.39,63.85 133.79,65.45 C133.19,67.05 132.49,68.95 131.59,71.05 L128.69,77.82 C127.59,80.22 126.69,82.62 125.79,85.12 C124.89,87.57 124.09,90.02 123.49,92.36 C122.89,94.76 122.59,96.96 122.59,98.96 C122.59,100.86 123.59,101.76 125.49,101.76 C126.89,101.76 128.59,101.36 130.59,100.36 C132.59,99.46 134.69,98.16 136.89,96.46 C139.09,94.76 141.29,92.76 143.49,90.46 C145.69,88.16 147.69,85.72 149.39,83.06 L150.09,93.66 L150.56,94.4 Z" id="Shape"></path>
            <path d="M152.6,90.5 C152.12,91.7 151.65,93.1 151.2,94.68 C150.73,96.26 150.5,97.68 150.5,98.93 C150.5,99.71 150.63,100.33 150.9,100.8 C151.16,101.27 151.66,101.5 152.4,101.5 C153.33,101.5 154.48,101.18 155.87,100.53 C157.25,99.88 158.74,99.03 160.34,97.95 C161.94,96.89 163.62,95.67 165.34,94.29 C167.08,92.89 168.81,91.39 170.52,89.99 C172.22,88.49 173.86,86.99 175.42,85.49 C176.98,83.99 178.38,82.59 179.62,81.39 C179.96,80.99 180.37,80.79 180.86,80.59 C181.34,80.39 181.76,80.29 182.11,80.29 C183.01,80.29 183.71,80.59 184.31,81.39 C184.91,82.09 185.21,83.09 185.21,84.29 C185.21,85.39 184.91,86.59 184.31,87.89 C183.71,89.19 182.61,90.49 181.11,91.79 C178.31,94.79 175.51,97.69 172.61,100.49 C169.81,103.19 166.91,105.69 164.11,107.79 C161.31,109.89 158.51,111.49 155.71,112.79 C152.91,113.99 150.21,114.59 147.61,114.59 C145.81,114.59 144.31,114.29 143.11,113.69 C141.91,113.09 141.01,112.29 140.21,111.29 C139.51,110.29 139.01,109.09 138.71,107.79 C138.41,106.39 138.31,104.99 138.31,103.49 C138.31,100.89 138.61,98.29 139.31,95.59 C140.01,92.89 140.71,90.39 141.61,88.19 C143.21,84.09 144.71,80.09 146.31,76.09 L150.71,65.09 L170.6,15 C171.35,13 172.4,11.58 173.75,10.7 C175.11,9.9 176.45,9.5 177.82,9.5 C179.22,9.5 180.42,9.9 181.56,10.8 C182.66,11.66 183.26,13.1 183.26,15.07 C183.26,16 183.06,16.99 182.71,18.03 C182.31,19.03 181.91,20.17 181.31,21.36 C180.21,23.78 178.91,26.76 177.41,30.3 L172.41,41.9 C170.71,46.05 168.91,50.4 167.11,54.9 L161.71,68.1 C159.91,72.38 158.31,76.4 156.81,80.24 L152.91,90.17 L152.6,90.5 Z" id="Shape"></path>
            <path d="M245.9,76.4 C246.53,75.97 247.1,75.63 247.63,75.37 C248.15,75.11 248.66,74.97 249.13,74.97 C250.1,74.97 250.83,75.41 251.31,76.27 C251.81,77.13 252.11,78.17 252.11,79.43 C252.11,80.78 251.81,82.16 251.21,83.56 C250.61,84.96 249.81,86.14 248.61,87.06 C243.91,91.23 239.71,95.03 236.11,98.46 C232.41,101.89 229.01,104.84 225.71,107.31 C222.41,109.81 219.21,111.71 216.11,113.11 C213.01,114.51 209.71,115.21 206.11,115.21 C202.81,115.21 200.21,114.51 198.41,113.01 C196.61,111.61 195.71,109.61 195.71,107.01 L195.71,106.41 C195.71,106.31 195.81,106.01 195.81,105.81 C196.01,104.31 196.71,102.51 197.91,100.41 C199.11,98.41 200.51,96.31 202.21,94.11 C203.91,91.91 205.71,89.71 207.61,87.51 C209.51,85.31 211.21,83.21 212.91,81.21 C214.51,79.21 215.81,77.41 216.91,75.71 C218.01,74.11 218.51,72.71 218.51,71.71 C218.51,71.11 218.31,70.61 217.89,70.21 C217.42,69.91 216.69,69.71 215.69,69.71 C213.89,69.71 212.09,70.21 210.23,71.11 C208.33,72.01 206.47,73.31 204.63,74.81 C202.83,76.41 201.03,78.11 199.31,80.11 C197.59,82.11 196.01,84.21 194.41,86.31 C192.91,88.51 191.51,90.61 190.21,92.81 C189.01,95.01 187.91,97.01 187.01,98.81 L185.91,101.21 L184.41,104.81 L182.61,108.81 L180.91,112.71 L179.51,116.01 C179.11,117.01 178.81,117.61 178.61,118.01 C178.41,118.51 178.11,119.41 177.61,120.71 L175.81,125.29 L173.71,130.79 L171.71,136.19 L170.01,140.77 C169.51,142.07 169.21,142.95 169.11,143.42 C168.61,144.72 168.11,146.02 167.51,147.22 C166.91,148.42 166.26,149.45 165.49,150.36 C164.73,151.26 163.85,152.01 162.86,152.56 C161.86,153.06 160.76,153.36 159.56,153.36 C157.96,153.36 156.66,152.96 155.66,152.24 C154.66,151.54 154.06,150.04 154.06,147.94 C154.06,146.94 154.16,145.84 154.46,144.74 C154.66,143.64 155.06,142.62 155.46,141.54 C155.76,140.44 156.26,139.44 156.66,138.44 C157.06,137.44 157.46,136.44 157.76,135.48 C160.06,130.28 162.51,125.08 164.96,119.82 C167.41,114.56 169.76,109.42 172.06,104.32 C174.32,99.22 176.41,94.22 178.36,89.22 C180.26,84.32 181.86,79.56 183.16,75.02 L184.56,71.06 C185.16,69.36 185.86,67.66 186.66,66.06 C187.46,64.46 188.36,62.96 189.36,61.76 C190.36,60.56 191.46,59.93 192.56,59.93 C194.36,59.93 195.63,60.33 196.42,61.13 C197.22,62.01 197.62,63.13 197.62,64.73 C197.62,65.03 197.58,65.53 197.49,66.23 C197.39,66.93 197.29,67.63 197.13,68.38 L196.7,70.48 C196.6,71.18 196.4,71.68 196.3,71.98 C197.9,70.22 199.7,68.48 201.58,66.73 C203.48,65 205.48,63.43 207.48,62.03 C209.48,60.63 211.58,59.43 213.68,58.58 C215.78,57.68 217.88,57.23 219.98,57.23 C221.48,57.23 222.88,57.43 224.34,57.83 C225.74,58.25 227.04,58.86 228.14,59.67 C229.31,60.47 230.22,61.47 230.92,62.67 C231.62,63.87 231.97,65.3 231.97,66.91 C231.97,69.04 231.41,71.31 230.37,73.71 C229.27,76.15 227.97,78.61 226.31,81.01 C224.71,83.47 222.94,85.85 221.05,88.16 C219.15,90.46 217.45,92.56 215.75,94.46 L211.55,99.36 C210.45,100.66 209.85,101.56 209.83,102.06 C209.83,102.66 210.03,103.16 210.43,103.56 C210.83,103.96 211.53,104.16 212.43,104.16 C213.21,104.16 214.31,103.71 215.73,102.86 C217.21,101.96 219.23,100.56 221.83,98.5 C224.43,96.4 227.79,93.7 231.8,90.2 C235.8,86.74 240.8,82.4 246.67,77.13 L245.9,76.4 Z" id="Shape"></path>
        </g>
    </g>
</svg>